<?xml version="1.0" encoding="UTF-8"?> <svg xmlns="http://www.w3.org/2000/svg" width="2402" height="652" viewBox="0 0 2402 652" fill="none"> <path d="M402.478 60.4275C402.478 43.6421 408.829 29.5423 421.536 18.1282C434.243 6.04275 448.537 0 464.417 0C479.664 0 493.324 6.04275 505.393 18.1282C518.1 29.5423 524.451 43.6421 524.451 60.4275C524.451 77.2128 518.1 91.3125 505.393 102.727C493.324 114.141 479.664 119.848 464.417 119.848C448.537 119.848 434.243 114.141 421.536 102.727C408.829 91.3125 402.478 77.2128 402.478 60.4275Z" fill="#0652DD"></path> <path d="M513.973 212.5V638.514H407.246V212.5H513.973Z" fill="#0652DD"></path> <path d="M827.915 212.504V25.1788H721.187V212.504H651.624V301.131H721.187V638.518H827.915V301.131H932.736V212.504H827.915Z" fill="#0652DD"></path> <path d="M1342.16 636.51C1368.2 627.109 1390.12 614.691 1407.91 599.247L1354.54 528.748C1332.95 547.546 1306.26 556.948 1274.5 556.948C1237.65 556.948 1207.16 544.525 1183.02 519.684C1159.51 494.168 1147.76 462.614 1147.76 425.014C1147.76 387.415 1158.88 356.194 1181.11 331.352C1203.98 305.838 1231.62 293.081 1264.02 293.081C1282.44 293.081 1299.59 296.773 1315.47 304.159C1331.99 310.873 1346.29 319.266 1358.35 329.337L1411.72 255.817C1370.42 219.561 1318.01 201.432 1254.49 201.432C1217 201.432 1181.75 210.497 1148.71 228.625C1116.31 246.753 1090.27 272.938 1070.57 307.181C1050.88 340.751 1041.03 380.029 1041.03 425.014C1041.03 470.671 1050.24 510.62 1068.67 544.862C1087.09 578.434 1113.14 604.282 1146.81 622.411C1181.11 640.539 1220.5 649.603 1264.97 649.603C1291.02 649.603 1316.75 645.237 1342.16 636.51Z" fill="#0652DD"></path> <path fill-rule="evenodd" clip-rule="evenodd" d="M1992.7 638.518V212.504H1894.54L1886.92 269.91C1854.52 218.883 1805.6 193.369 1740.17 193.369C1703.33 193.369 1669.34 203.104 1638.21 222.575C1607.72 241.375 1583.26 268.567 1564.83 304.152C1546.41 339.066 1537.2 379.687 1537.2 426.015C1537.2 473.685 1546.09 514.304 1563.88 547.877C1581.67 581.449 1605.81 606.96 1636.3 624.418C1666.8 641.202 1701.42 649.596 1740.17 649.596C1773.2 649.596 1802.11 642.209 1826.89 627.44C1851.66 611.995 1871.36 595.212 1885.97 577.083V638.518H1992.7ZM1843.09 533.777C1823.39 549.221 1798.93 556.941 1769.71 556.941C1747.48 556.941 1726.83 550.898 1707.77 538.813C1688.71 526.727 1673.47 510.276 1662.03 489.463C1650.6 468.65 1644.88 445.486 1644.88 419.972C1644.88 381.03 1656.63 349.137 1680.14 324.295C1703.64 298.781 1732.23 286.024 1765.9 286.024C1794.49 286.024 1819.58 294.081 1841.18 310.195C1863.42 326.309 1878.34 347.459 1885.97 373.644V466.3C1877.71 495.169 1863.42 517.663 1843.09 533.777Z" fill="#0652DD"></path> <path d="M2402 458.246V322.52L2192.15 128.275V253.674L2326.62 385.466V395.301L2192.15 527.093V652L2402 458.246Z" fill="#0652DD"></path> <path d="M209.847 527.093L75.3774 395.301V385.466L209.847 253.674V128.275L0 322.52V458.246L209.847 652V527.093Z" fill="#0652DD"></path> </svg> 