<?xml version="1.0" encoding="UTF-8"?> <svg xmlns="http://www.w3.org/2000/svg" width="2185" height="538" viewBox="0 0 2185 538" fill="none"> <g clip-path="url(#clip0)"> <path d="M1569 279.876C1567.91 280.909 1567.51 282.401 1566.87 283.664C1543.3 329.064 1519.79 374.463 1496.22 419.863C1495.07 422.044 1494.56 424.167 1494.56 426.635C1494.61 453.267 1494.61 479.841 1494.61 506.472C1494.61 507.218 1494.56 507.964 1494.61 508.71C1494.79 510.203 1494.33 510.777 1492.66 510.777C1478.98 510.719 1465.24 510.719 1451.56 510.777C1450.18 510.777 1449.55 510.375 1449.72 508.94C1449.78 508.194 1449.72 507.448 1449.72 506.702C1449.72 480.185 1449.72 453.668 1449.78 427.152C1449.78 424.454 1449.14 422.159 1447.94 419.805C1424.2 374.004 1400.51 328.203 1376.83 282.344C1376.37 281.426 1375.62 280.565 1375.56 279.359C1376.48 278.843 1377.46 279.072 1378.38 279.072C1392.64 279.072 1406.89 279.13 1421.09 279.015C1423.33 279.015 1424.43 279.704 1425.4 281.77C1440.58 315.289 1455.87 348.808 1471.16 382.326C1471.68 383.474 1472.25 384.68 1472.89 386C1474.21 385.196 1474.44 383.876 1474.9 382.785C1490.13 349.382 1505.36 315.978 1520.48 282.516C1521.69 279.876 1522.95 278.9 1525.94 278.958C1540.31 279.187 1554.63 279.072 1569 279.13C1569 279.474 1569 279.704 1569 279.876Z" fill="#434242"></path> <path d="M1169.19 327.17C1169.94 344.388 1169.83 361.664 1169.19 378.883C1168.5 396.733 1167.47 414.64 1166.32 432.49C1165.51 444.83 1164.88 457.227 1164.13 469.625C1163.33 482.768 1162.52 495.854 1161.72 508.998C1161.66 509.514 1161.6 510.031 1161.55 510.49C1160.86 511.007 1160.23 510.834 1159.54 510.834C1146.77 510.834 1134.07 510.834 1121.31 510.834C1118.72 510.834 1118.61 510.777 1118.84 508.137C1119.76 496.199 1120.79 484.318 1121.71 472.38C1122.46 463.139 1123.15 453.898 1123.89 444.658C1124.93 432.088 1125.91 419.519 1126.94 406.949C1127.69 397.938 1128.38 388.927 1129.07 379.859C1130.1 367.174 1131.14 354.49 1132.12 341.863C1132.86 332.622 1133.55 323.382 1134.3 314.141C1135.16 303.064 1136.08 292.044 1136.89 280.967C1137 279.589 1137.52 279.13 1138.9 279.13C1142 279.188 1145.16 279.13 1148.27 279.13C1162.29 279.13 1176.32 279.13 1190.35 279.13C1190.98 279.13 1191.67 279.188 1192.3 279.13C1193.74 278.958 1194.31 279.589 1194.66 281.024C1196.04 286.764 1197.59 292.503 1199.03 298.243C1210.75 344.331 1222.48 390.477 1234.27 436.565C1234.55 437.713 1234.38 439.205 1235.76 440.181C1238.23 430.022 1240.65 420.035 1243.06 409.991C1253.29 367.404 1263.47 324.817 1273.7 282.172C1274.45 279.188 1274.45 279.188 1277.44 279.13C1294.62 279.13 1311.76 279.13 1328.94 279.13C1332.33 279.13 1332.22 278.728 1332.51 282.344C1333.71 298.013 1334.98 313.682 1336.19 329.408C1337.16 341.634 1338.03 353.916 1339 366.141C1339.98 378.711 1341.02 391.28 1341.99 403.85C1342.68 412.861 1343.37 421.872 1344.12 430.94C1345.15 444.026 1346.19 457.17 1347.22 470.256C1347.97 479.841 1348.72 489.369 1349.41 498.954C1349.7 502.799 1350.27 506.645 1350.1 510.433C1349.18 511.007 1348.32 510.834 1347.45 510.834C1334.92 510.834 1322.39 510.834 1309.86 510.834C1306.98 510.834 1306.93 510.834 1306.75 507.85C1306.06 496.543 1305.37 485.236 1304.68 473.987C1303.65 457.629 1302.62 441.272 1301.64 424.971C1300.89 412.287 1300.2 399.603 1299.51 386.861C1298.36 365.166 1297.79 343.413 1298.07 321.545C1296.92 322.349 1296.98 323.497 1296.75 324.472C1288.19 358.163 1279.56 391.854 1271 425.545C1266.17 444.543 1261.34 463.541 1256.51 482.481C1255.71 485.695 1255.71 485.695 1252.26 485.695C1240.47 485.695 1228.75 485.695 1216.96 485.695C1213.69 485.695 1213.69 485.695 1212.88 482.653C1205.47 455.219 1198.11 427.784 1190.69 400.349C1183.79 374.693 1176.84 349.037 1169.94 323.382L1169.02 321.66L1169.19 327.17Z" fill="#434242"></path> <path d="M1074.46 279.187C1073.31 287.165 1072.27 294.741 1071.18 302.26C1070.84 304.728 1070.49 307.139 1070.15 309.607C1069.8 311.96 1069.8 311.96 1067.33 312.017C1066.7 312.017 1066.01 312.017 1065.38 312.017C1039.45 312.017 1013.58 312.017 987.656 312.017C983.689 312.017 984.092 311.845 984.092 315.404C984.092 334.688 984.092 353.973 984.092 373.258C984.092 373.602 984.092 373.889 984.092 374.234C984.149 376.644 984.149 376.702 986.679 376.702C998.75 376.702 1010.88 376.702 1022.95 376.702C1033.99 376.702 1044.97 376.702 1056.01 376.702C1058.65 376.702 1058.65 376.759 1058.65 379.342C1058.65 388.41 1058.65 397.421 1058.65 406.49C1058.65 409.646 1058.82 409.474 1055.72 409.474C1037.15 409.474 1018.58 409.474 1000.02 409.474C995.704 409.474 991.392 409.474 987.081 409.474C984.207 409.474 984.149 409.532 984.149 412.229C984.149 433.121 984.149 454.07 984.149 474.962C984.149 477.602 984.207 477.602 986.794 477.602C999.095 477.602 1011.4 477.602 1023.7 477.602C1039.68 477.602 1055.66 477.602 1071.64 477.602C1072.27 477.602 1072.96 477.602 1073.6 477.602C1075.84 477.66 1075.9 477.66 1075.9 479.956C1075.9 487.474 1075.9 495.05 1075.9 502.569C1075.9 504.75 1075.84 506.874 1075.9 509.055C1075.95 510.318 1075.38 510.834 1074.17 510.719C1073.42 510.662 1072.68 510.719 1071.93 510.719C1029.16 510.719 986.449 510.719 943.68 510.719C939.886 510.719 939.886 510.719 939.886 506.989C939.886 432.318 939.886 357.646 939.886 282.918C939.886 278.384 939.311 279.073 943.852 279.073C986.046 279.073 1028.24 279.073 1070.43 279.073C1071.64 279.187 1072.85 279.187 1074.46 279.187Z" fill="#434242"></path> <path d="M435.974 461.13C436.721 461.303 436.951 461.819 437.296 462.221C443.389 470.084 449.483 477.89 455.519 485.753C457.071 487.704 457.071 487.762 455.116 489.598C442.01 501.766 426.776 509.974 409.301 513.589C388.319 517.952 367.624 516.517 347.62 508.653C324.568 499.585 308.588 483.055 298.125 460.901C292.262 448.503 288.813 435.475 286.973 421.929C284.961 407.466 284.559 392.945 285.766 378.367C287.606 356.04 293.412 334.918 306.058 316.093C320.947 293.766 341.699 279.991 368.199 275.629C389.699 272.071 410.796 273.793 430.858 283.205C438.733 286.879 445.919 291.642 452.645 297.095C454.427 298.53 454.427 298.587 452.989 300.252C446.436 307.885 439.883 315.461 433.33 323.038C431.663 324.989 431.605 324.989 429.536 323.382C421.603 317.068 412.808 312.362 402.863 309.951C393.55 307.77 384.238 307.541 374.982 309.894C362.451 313.051 353.023 320.512 345.838 331.13C340.089 339.682 336.928 349.267 334.916 359.254C331.869 374.693 331.237 390.247 332.099 405.916C332.674 417.223 334.111 428.415 337.502 439.32C339.802 446.782 343.021 453.784 347.792 460.04C359.692 475.709 375.73 481.563 394.987 480.071C403.667 479.382 411.6 476.512 419.016 472.15C423.96 469.28 428.731 466.181 433.445 462.91C434.307 462.278 435.227 461.704 435.974 461.13Z" fill="#434242"></path> <path d="M860.384 75.8364C860.384 90.4721 860.384 105.165 860.384 119.801C860.384 125.885 859.694 131.854 857.683 137.594C852.911 151.196 843.656 160.092 829.515 163.536C819.168 166.062 808.705 166.004 798.473 163.192C783.699 159.174 774.904 149.187 770.938 134.666C769.673 129.96 769.156 125.139 769.098 120.26C769.041 89.2095 769.098 58.1587 769.098 27.1079C769.098 24.2955 769.098 24.2382 771.915 24.2382C774.387 24.2382 776.859 24.2955 779.388 24.1808C780.998 24.1234 781.515 24.7547 781.343 26.247C781.285 26.9931 781.343 27.7393 781.343 28.4854C781.343 58.2161 781.343 88.0042 781.343 117.735C781.343 122.843 781.745 127.836 783.125 132.772C786.631 145.457 795.081 152.746 808.131 154.181C813.189 154.755 818.248 154.755 823.307 153.894C836.356 151.713 843.771 143.735 846.76 131.223C847.853 126.688 848.083 122.097 848.083 117.448C848.083 87.7172 848.083 57.9291 848.083 28.1984C848.083 23.779 847.45 24.2382 851.992 24.2382C854.176 24.2382 856.303 24.3529 858.487 24.1808C860.097 24.066 860.557 24.7547 860.442 26.247C860.327 27.3375 860.442 28.428 860.442 29.4611C860.384 45.0152 860.384 60.4545 860.384 75.8364Z" fill="#434242"></path> <path d="M889.069 147.638C891.369 145.113 893.726 142.645 896.083 140.062C898.382 141.841 900.394 143.563 902.578 145.17C915.857 154.755 930.516 157.395 946.152 153.033C956.327 150.163 963.57 143.735 966.157 133.002C967.536 127.32 967.306 121.638 965.754 116.071C964.375 111.249 961.385 107.461 957.361 104.534C953.567 101.779 949.371 99.8852 945.06 98.1059C939.599 95.8675 933.85 94.2605 928.274 92.309C920.801 89.7262 913.558 86.6843 907.12 82.0927C901.486 78.075 897.405 72.9095 895.68 66.1368C891.254 48.6887 898.382 34.3399 912.811 26.936C919.077 23.7218 925.802 22.3443 932.758 22.0574C948.049 21.3686 961.73 25.5585 973.285 35.8322C973.86 36.3488 974.549 36.6931 974.837 37.6688C972.882 39.7925 970.813 41.9735 968.858 44.2119C968.111 45.0154 967.594 45.0728 966.731 44.3267C964.662 42.6048 962.535 40.883 960.293 39.4481C948.854 32.0441 936.437 30.3223 923.445 34.1103C915.053 36.5783 908.787 41.9161 907.292 50.9271C905.28 63.0375 908.844 70.0397 917.927 75.4349C923.905 78.9934 930.401 81.2318 937.012 83.2406C944.14 85.479 951.153 87.8322 957.821 91.1037C962.593 93.4569 967.019 96.3267 970.641 100.23C978.171 108.322 980.01 118.194 979.206 128.755C977.769 146.72 965.697 159.978 946.497 163.823C926.492 167.841 908.154 163.709 892.174 150.68C891.311 149.991 890.564 149.245 889.759 148.556C889.472 148.384 889.357 148.04 889.069 147.638Z" fill="#434242"></path> <path d="M1181.61 24.6976C1181.67 27.3952 1180.86 30.0927 1180.63 32.8477C1180.52 33.8234 1180.06 34.3974 1178.97 34.34C1178.22 34.2826 1177.47 34.34 1176.72 34.34C1160.46 34.34 1144.13 34.34 1127.86 34.34C1127.23 34.34 1126.54 34.34 1125.91 34.34C1123.49 34.3974 1123.44 34.3974 1123.44 36.9227C1123.44 52.4194 1123.44 67.9735 1123.44 83.4702C1123.44 85.9382 1123.49 85.9956 1126.25 85.9956C1140.39 85.9956 1154.53 85.9956 1168.68 85.9956C1169.54 85.9956 1170.4 86.053 1171.26 85.9956C1172.41 85.9382 1172.76 86.5696 1172.76 87.6027C1172.76 89.9559 1172.7 92.3665 1172.76 94.7197C1172.76 95.8102 1172.35 96.2693 1171.21 96.2119C1170.46 96.1545 1169.71 96.2119 1168.96 96.2119C1155.05 96.2119 1141.14 96.2119 1127.17 96.2119C1126.42 96.2119 1125.68 96.2693 1124.93 96.2119C1123.78 96.1545 1123.44 96.7285 1123.49 97.819C1123.55 98.4503 1123.49 99.1391 1123.49 99.7704C1123.49 116.243 1123.49 132.715 1123.49 149.245C1123.49 149.589 1123.49 149.876 1123.49 150.221C1123.55 152.976 1123.55 153.033 1126.37 153.033C1144.07 153.033 1161.78 153.033 1179.48 153.033C1180.23 153.033 1180.98 153.091 1181.72 153.033C1182.99 152.976 1183.45 153.492 1183.45 154.755C1183.39 156.993 1183.39 159.289 1183.45 161.528C1183.45 162.618 1182.93 163.077 1181.9 163.02C1181.26 163.02 1180.57 163.02 1179.94 163.02C1158.27 163.02 1136.54 163.02 1114.87 163.02C1110.96 163.02 1111.36 163.249 1111.36 159.576C1111.36 115.611 1111.36 71.6468 1111.36 27.6821C1111.36 27.1656 1111.42 26.5916 1111.36 26.0751C1111.25 24.8698 1111.77 24.2384 1113.03 24.3532C1113.55 24.4106 1114.12 24.3532 1114.64 24.3532C1136.02 24.3532 1157.35 24.3532 1178.74 24.3532C1179.54 24.3532 1180.52 24.1236 1181.61 24.6976Z" fill="#434242"></path> <path d="M647.748 150.909C641.77 156.764 634.871 160.839 626.939 163.02C613.142 166.808 599.633 166.234 586.584 159.978C576.754 155.214 569.569 147.638 564.28 138.168C559.336 129.271 556.52 119.744 555.312 109.7C553.875 97.8762 553.875 86.0528 555.83 74.2868C557.784 62.6356 561.866 51.8453 569.109 42.4325C580.433 27.682 595.667 21.4833 614.062 22.1721C625.329 22.5738 635.274 26.4767 644.184 33.3067C646.598 35.1434 646.196 34.9138 644.586 36.98C643.667 38.1853 642.689 39.3332 641.77 40.5385C639.815 42.9491 639.815 43.0065 637.343 41.2272C633.147 38.1853 628.721 35.4877 623.604 34.1676C603.14 28.7151 582.905 36.4634 573.42 57.2979C570.144 64.5297 568.534 72.2206 567.729 80.0838C566.522 92.5959 566.694 105.051 569.511 117.391C571.236 124.909 573.995 132.026 578.479 138.34C585.894 148.843 596.184 154.009 608.946 154.697C620.385 155.329 630.33 151.598 639.24 144.653C641.367 142.989 641.425 143.046 643.149 145.17C644.644 146.892 646.196 148.843 647.748 150.909Z" fill="#434242"></path> <path d="M1086.41 24.755C1086.53 27.7396 1085.67 30.6667 1085.44 33.5939C1085.38 34.627 1084.63 34.9713 1083.66 34.9713C1081.59 34.9139 1079.57 34.9713 1077.5 34.9713C1067.56 34.9713 1057.61 34.9713 1047.73 34.9713C1044.05 34.9713 1044.45 34.9713 1044.45 38.3577C1044.45 78.5343 1044.45 118.768 1044.45 158.945C1044.45 163.651 1045.14 162.905 1040.31 163.02C1038.36 163.077 1036.4 162.963 1034.51 163.02C1033.18 163.077 1032.44 162.676 1032.61 161.241C1032.67 160.38 1032.61 159.519 1032.61 158.658C1032.61 118.883 1032.61 79.1082 1032.61 39.3334C1032.61 38.4724 1032.55 37.6115 1032.61 36.7506C1032.67 35.5453 1032.21 34.9139 1030.94 34.9713C1029.62 35.0287 1028.36 34.9713 1027.03 34.9713C1016.34 34.9713 1005.65 34.9713 994.957 34.9713C994.209 34.9713 993.462 34.9713 992.715 34.9713C991.795 34.9713 991.277 34.627 991.335 33.6513C991.335 30.9537 991.335 28.2561 991.335 25.5585C991.335 24.755 991.795 24.4106 992.542 24.3532C993.175 24.3532 993.864 24.3532 994.497 24.3532C1024.16 24.3532 1053.88 24.3532 1083.54 24.3532C1084.4 24.3532 1085.44 24.0663 1086.41 24.755Z" fill="#434242"></path> <path d="M457.473 24.6976C457.071 27.51 456.611 30.265 456.381 33.0773C456.208 34.627 455.519 34.9714 454.082 34.9714C447.471 34.914 440.918 34.9714 434.307 34.9714C428.788 34.9714 423.27 34.9714 417.809 34.9714C415.394 34.9714 415.394 35.0288 415.337 37.4968C415.337 38.1281 415.337 38.8168 415.337 39.4482C415.337 79.4526 415.337 119.4 415.337 159.404C415.337 163.364 415.854 162.963 411.658 163.02C409.588 163.02 407.576 162.905 405.507 163.077C403.725 163.192 403.265 162.389 403.38 160.839C403.437 159.978 403.38 159.117 403.38 158.256C403.38 118.596 403.38 78.9361 403.38 39.276C403.38 34.34 403.782 35.0862 399.011 35.0288C387.687 34.9714 376.362 35.0288 365.037 35.0288C362.221 35.0288 362.221 34.9714 362.221 32.2164C362.221 30.1502 362.278 28.1413 362.221 26.0751C362.163 24.8124 362.681 24.2959 363.945 24.4107C364.463 24.4681 365.037 24.4107 365.555 24.4107C395.102 24.4107 424.707 24.4107 454.254 24.4107C455.116 24.3533 456.094 24.1237 457.473 24.6976Z" fill="#434242"></path> <path d="M745.012 152.402C744.897 155.559 744.15 158.715 743.747 161.872C743.632 162.733 743.115 162.905 742.425 162.963C741.793 162.963 741.103 162.963 740.471 162.963C719.719 162.963 699.024 162.963 678.272 162.963C677.64 162.963 676.95 162.963 676.318 162.963C675.34 162.963 674.995 162.503 674.995 161.585C674.995 160.839 674.995 160.093 674.995 159.347C674.995 115.612 674.995 71.8191 674.995 28.084C674.995 27.4526 675.053 26.7639 674.995 26.1325C674.823 24.6977 675.57 24.2959 676.893 24.2959C679.709 24.3533 682.526 24.3533 685.285 24.2959C686.607 24.2959 687.297 24.6977 687.182 26.1325C687.125 26.9935 687.182 27.8544 687.182 28.7153C687.182 68.2606 687.182 107.806 687.182 147.351C687.182 148.097 687.182 148.843 687.182 149.59C687.24 151.943 687.24 152 689.769 152C706.957 152 724.088 152 741.276 152C742.483 152.057 743.69 151.828 745.012 152.402Z" fill="#434242"></path> <path d="M324.453 93.2847C324.453 71.7041 324.453 50.181 324.453 28.6004C324.453 27.8542 324.51 27.1081 324.453 26.362C324.338 24.8697 324.74 24.181 326.407 24.2957C329.109 24.4105 331.811 24.4105 334.513 24.2957C336.007 24.2384 336.755 24.6975 336.64 26.3046C336.582 26.9359 336.64 27.6247 336.64 28.256C336.64 71.8763 336.64 115.554 336.64 159.174C336.64 163.479 337.042 162.962 332.846 163.02C330.604 163.02 328.304 163.02 326.062 163.02C325.028 163.02 324.453 162.675 324.51 161.528C324.568 160.667 324.51 159.806 324.51 158.945C324.453 137.077 324.453 115.21 324.453 93.2847Z" fill="#434242"></path> <path fill-rule="evenodd" clip-rule="evenodd" d="M709.544 283.091V394.954C709.544 432.146 709.544 469.338 709.601 506.53C709.601 506.817 709.608 507.104 709.614 507.391C709.627 507.965 709.64 508.539 709.601 509.113C709.486 510.376 710.004 510.949 711.269 510.835C711.767 510.796 712.265 510.809 712.763 510.822C713.012 510.828 713.261 510.835 713.51 510.835C719.738 510.835 725.965 510.828 732.193 510.822C744.648 510.809 757.103 510.796 769.558 510.835C777.434 510.835 785.309 510.548 793.127 509.572C809.05 507.563 824.054 502.972 838.138 495.223C858.947 483.802 872.513 466.698 879.182 443.912C883.263 429.965 885.045 415.674 885.505 401.21C885.85 390.649 885.563 380.089 884.355 369.585C883.091 358.623 880.964 347.89 877.17 337.501C870.846 320.111 859.982 306.565 843.828 297.325C835.263 292.446 826.296 288.543 816.868 285.731C802.497 281.484 787.781 279.475 772.835 279.303C758.005 279.131 743.208 279.152 728.395 279.174C723.455 279.181 718.513 279.188 713.568 279.188C711.279 279.188 710.275 279.057 709.842 279.492C709.417 279.921 709.544 280.899 709.544 283.091ZM753.98 315.806V395.011V395.054C753.98 421.269 753.98 447.427 754.038 473.528C754.038 473.776 754.044 474.025 754.05 474.274C754.063 474.771 754.076 475.269 754.038 475.766C753.923 477.144 754.555 477.603 755.935 477.603C759.099 477.548 762.264 477.574 765.427 477.601C772.203 477.658 778.971 477.715 785.712 476.971C793.932 476.11 801.75 473.815 808.993 469.74C821.985 462.508 829.803 451.316 833.826 437.254C836.643 427.382 838.023 417.223 838.598 407.007C839.46 391.912 839.115 376.874 836.356 361.952C834.344 351.161 830.55 341.06 823.939 332.106C819.053 325.563 812.959 320.57 805.314 317.585C798.588 315.002 791.69 313.51 784.562 312.821C778.255 312.184 771.977 312.238 765.687 312.292C762.919 312.316 760.148 312.34 757.372 312.305C755.526 312.276 754.676 312.164 754.289 312.535C753.892 312.915 753.98 313.802 753.98 315.806Z" fill="#434242"></path> <path fill-rule="evenodd" clip-rule="evenodd" d="M475.748 500.02C474.662 503.496 473.569 506.994 472.476 510.547C473.051 510.719 473.281 510.777 473.569 510.719C487.825 510.719 502.081 510.719 516.337 510.777C518.119 510.777 518.694 510.088 519.097 508.481C521.825 498.138 524.6 487.819 527.377 477.493C528.93 471.717 530.484 465.939 532.031 460.154C532.459 458.643 532.675 457.883 533.178 457.5C533.687 457.112 534.492 457.112 536.112 457.112H606.704C608.229 457.112 608.991 457.112 609.472 457.479C609.952 457.846 610.153 458.578 610.555 460.039L623.489 508.079C624.179 510.777 624.179 510.777 626.823 510.777H668.902C669.044 510.777 669.19 510.789 669.338 510.801C669.915 510.848 670.526 510.899 671.029 510.26C670.311 507.909 669.579 505.543 668.847 503.178C668.113 500.808 667.379 498.439 666.66 496.083C644.586 424.799 622.512 353.571 600.38 282.344C599.837 280.632 599.792 279.827 599.367 279.452C598.938 279.072 598.121 279.13 596.011 279.13H547.724C546.159 279.13 545.369 279.13 544.851 279.506C544.323 279.889 544.079 280.664 543.585 282.229C543.585 282.287 543.585 282.401 543.528 282.516C522.028 351.39 500.587 420.207 479.145 489.081C478.025 492.73 476.89 496.363 475.748 500.02ZM541.631 423.479H600.955C591.01 386.689 581.181 350.3 571.408 313.912C571.236 313.969 571.063 313.969 570.891 313.969H570.891C562.756 344.309 554.66 374.648 546.539 405.087C544.904 411.214 543.268 417.344 541.631 423.479Z" fill="#434242"></path> <path fill-rule="evenodd" clip-rule="evenodd" d="M256.91 510.86C257.654 510.901 258.391 510.942 259.093 510.548C259.261 509.71 258.97 508.965 258.689 508.244C258.584 507.976 258.481 507.712 258.403 507.448C246.764 469.886 235.11 432.324 223.456 394.762C211.8 357.194 200.143 319.626 188.502 282.057C188.076 280.641 187.861 279.924 187.379 279.561C186.884 279.188 186.108 279.188 184.535 279.188H135.961C135.805 279.188 135.65 279.194 135.496 279.201C135.196 279.213 134.905 279.226 134.639 279.188C133.374 279.016 132.569 279.532 132.282 280.795C132.172 281.269 132.016 281.72 131.858 282.177C131.767 282.439 131.676 282.704 131.592 282.976C127.108 297.353 122.639 311.745 118.169 326.137C113.7 340.529 109.23 354.921 104.746 369.298L104.745 369.303C90.3743 415.332 76.0035 461.361 61.6903 507.391C61.6136 507.633 61.5198 507.873 61.4254 508.114C61.0954 508.958 60.7578 509.821 61.1154 510.892H63.1274H103.942H105.264C106.299 510.949 106.873 510.605 107.046 509.514C107.114 509.075 107.241 508.655 107.37 508.232C107.46 507.937 107.55 507.64 107.621 507.333L107.622 507.328C111.875 491.661 116.129 475.994 120.325 460.269C121.142 457.102 121.195 457.105 123.073 457.191C123.441 457.207 123.879 457.227 124.406 457.227H194.653C194.861 457.227 195.076 457.234 195.293 457.24C195.734 457.253 196.184 457.266 196.607 457.227C197.642 457.17 198.217 457.514 198.389 458.605C198.457 459.045 198.585 459.464 198.713 459.887C198.803 460.183 198.893 460.479 198.964 460.786C200.814 467.693 202.675 474.599 204.537 481.511C206.899 490.279 209.264 499.056 211.611 507.85C212.443 510.93 212.483 510.928 214.288 510.86C214.603 510.848 214.97 510.835 215.405 510.835H256.219C256.45 510.835 256.68 510.847 256.91 510.86ZM170.738 355.093C167.174 341.906 163.61 328.72 160.046 315.519C159.958 315.431 159.885 315.32 159.814 315.212C159.605 314.897 159.41 314.603 158.897 314.945C156.523 323.817 154.147 332.689 151.769 341.564C144.471 368.804 137.165 396.076 129.924 423.479H189.134C188.904 422.423 188.674 421.514 188.444 420.605C188.386 420.377 188.329 420.15 188.271 419.921C187.122 415.703 185.987 411.499 184.851 407.295C183.716 403.09 182.58 398.886 181.431 394.667C177.867 381.466 174.303 368.279 170.738 355.093Z" fill="#434242"></path> <path fill-rule="evenodd" clip-rule="evenodd" d="M1301.81 162.955C1302.97 162.959 1304.15 162.962 1305.37 162.962C1303.48 159.748 1301.93 157.166 1300.37 154.698C1293.92 143.744 1287.44 132.813 1280.97 121.89C1276.89 115.012 1272.82 108.137 1268.76 101.263C1267.26 98.7947 1267.32 98.7373 1269.96 97.9338C1275.14 96.3267 1280.08 94.2605 1284.51 91.1038C1290.43 86.9139 1294.51 81.404 1296.58 74.4018C1298.02 69.4658 1298.3 64.4724 1298.13 59.3642C1297.61 44.2119 1289.91 33.479 1275.6 28.3135C1267.84 25.4437 1259.67 24.468 1251.45 24.4106C1240.7 24.3532 1229.9 24.3532 1219.09 24.3532C1216.81 24.3532 1215.82 24.1939 1215.4 24.6101C1214.98 25.0225 1215.12 25.9996 1215.12 28.2561V159.232C1215.12 159.481 1215.13 159.729 1215.14 159.978C1215.15 160.475 1215.16 160.973 1215.12 161.47C1215.07 162.561 1215.47 163.02 1216.62 163.02C1218.07 162.982 1219.5 162.994 1220.94 163.007C1221.66 163.013 1222.38 163.02 1223.11 163.02C1225.5 162.991 1226.55 163.153 1227 162.71C1227.44 162.277 1227.31 161.269 1227.31 158.945V103.96C1227.31 100.861 1227.37 100.861 1230.53 100.861C1232.32 100.861 1234.12 100.865 1235.92 100.868C1241.33 100.879 1246.77 100.89 1252.2 100.804C1254.33 100.746 1255.48 101.435 1256.51 103.272C1260.91 111.121 1265.42 118.935 1269.93 126.741C1271.18 128.924 1272.44 131.107 1273.7 133.289C1276.34 137.909 1279 142.53 1281.66 147.15C1284.32 151.77 1286.98 156.391 1289.62 161.011C1289.71 161.147 1289.8 161.286 1289.88 161.423C1290.39 162.269 1290.87 163.069 1292.21 163.02C1295.33 162.934 1298.46 162.944 1301.81 162.955ZM1227.31 36.8649V62.4057C1227.31 71.1298 1227.31 79.8539 1227.37 88.5205C1227.37 90.8163 1227.43 90.8737 1229.67 90.8737C1237.54 90.9311 1245.42 90.9885 1253.29 90.8163C1259.21 90.7015 1265.08 89.7832 1270.6 87.3152C1277.67 84.1585 1282.15 78.9355 1284.16 71.4742C1285.37 66.94 1285.6 62.2909 1285.14 57.6993C1284.05 47.2534 1278.7 40.079 1268.53 36.8075C1265.25 35.7744 1261.86 35.143 1258.41 34.7413C1252.01 34.0445 1245.62 34.1048 1239.22 34.1652C1236.13 34.1943 1233.04 34.2234 1229.95 34.1673C1227.37 34.1099 1227.31 34.2247 1227.31 36.8649Z" fill="#434242"></path> </g> <path d="M1865.62 22C1866.08 22 1866.53 22 1866.99 22C1867.61 22 1868.23 22 1868.8 22C1870.7 22 1872.6 22 1874.46 22.0403C1875.08 22.0403 1875.7 22.0403 1876.32 22C1876.94 22 1877.56 22 1878.18 22C1902.87 24.8632 1922.57 43.0101 1926.91 66.8431C1927.12 67.9319 1926.74 69.4643 1927.73 69.9886C1928.6 70.5128 1930.01 70.1902 1931.16 70.1902C1957.14 70.1902 1983.07 70.1902 2009.05 70.1902C2009.5 70.1902 2010 70.1902 2010.45 70.1902C2012.43 70.1902 2012.43 70.1499 2012.68 68.2545C2015.74 46.3572 2033.58 27.6054 2055.84 23.0082C2057.74 22.6049 2059.64 22.3629 2061.54 22.0403C2062.16 22.0403 2062.78 22.0403 2063.39 22.0403C2064.01 22.0403 2064.63 22.0403 2065.21 22.0403C2066.95 22.0403 2068.68 22.0403 2070.46 22.0403C2071.08 22.0403 2071.7 22.0403 2072.31 22C2072.93 22 2073.51 22 2074.13 22C2098.91 24.6616 2118.98 43.2118 2123.07 67.1657C2127.98 96.0798 2109.07 123.542 2079.71 129.591C2047.08 136.285 2018.38 114.872 2013.09 86.2805C2013.05 86.0385 2013.01 85.8369 2012.93 85.6353C2012.56 84.6271 2013.09 83.2963 2012.23 82.6108C2011.24 81.8042 2009.83 82.2882 2008.63 82.2882C1982.66 82.2478 1956.68 82.2882 1930.71 82.2882C1930.25 82.2882 1929.76 82.2882 1929.3 82.2882C1927.45 82.3285 1927.4 82.3285 1927.16 84.1432C1926.5 88.9824 1925.22 93.6602 1923.11 98.0558C1914.44 116.203 1900.02 127.01 1879.71 130.236C1878.43 130.438 1878.05 130.882 1878.05 132.091C1878.1 136.769 1878.1 141.488 1878.1 146.165C1878.1 167.901 1878.1 189.637 1878.1 211.373C1878.1 211.817 1878.1 212.301 1878.1 212.744C1878.14 214.519 1878.14 214.559 1879.91 214.801C1890.98 216.495 1900.81 220.85 1909.15 228.19C1919.1 236.981 1925.17 247.909 1927.16 260.894C1927.45 262.79 1927.45 262.83 1929.47 262.83C1956.48 262.83 1983.44 262.83 2010.45 262.83C2012.48 262.83 2012.48 262.83 2012.72 260.935C2015.74 239.158 2033.12 220.648 2055.18 215.688C2085.2 208.954 2114.73 226.576 2122.24 255.733C2129.84 285.211 2110.84 315.376 2080.45 322.029C2049.89 328.724 2020.03 310.133 2013.34 280.251C2013.01 278.84 2012.85 277.428 2012.64 275.977C2012.52 275.17 2012.15 274.726 2011.28 274.807C2010.82 274.847 2010.33 274.807 2009.87 274.807C1983.28 274.807 1956.68 274.807 1930.05 274.807C1929.88 274.807 1929.72 274.807 1929.59 274.807C1927.4 274.807 1927.4 274.807 1927.12 276.823C1923.52 300.616 1904.28 319.408 1880.04 322.836C1878.1 323.118 1878.1 323.118 1878.1 325.014C1878.1 339.934 1878.1 354.855 1878.1 369.776C1878.1 381.269 1878.1 392.802 1878.1 404.296C1878.1 404.739 1878.14 405.223 1878.1 405.667C1877.93 406.957 1878.55 407.28 1879.79 407.441C1889.41 408.772 1898.21 412.24 1905.85 418.128C1920.96 429.822 1928.35 445.146 1927.65 464.019C1926.83 487.489 1909.4 509.669 1882.8 514.952C1880.37 515.435 1877.89 515.637 1875.45 516C1872.97 516 1870.5 516 1868.02 515.96C1863.11 515.355 1858.19 514.669 1853.52 512.935C1833 505.273 1820.4 490.957 1816.81 469.746C1811.94 441.033 1831.51 413.772 1860.71 407.925C1861.87 407.683 1862.98 407.441 1864.14 407.401C1865.5 407.36 1865.87 406.715 1865.75 405.546C1865.71 405.263 1865.75 404.941 1865.75 404.618C1865.75 378.245 1865.75 351.911 1865.75 325.538C1865.75 325.215 1865.71 324.933 1865.75 324.61C1865.91 323.441 1865.46 322.957 1864.14 322.755C1842.46 319.207 1827.22 307.512 1819.5 287.429C1807.44 256.176 1827.59 221.536 1861.12 215.204C1861.87 215.043 1862.65 214.962 1863.39 214.801C1865.71 214.398 1865.71 214.398 1865.71 212.22C1865.71 185.726 1865.71 159.191 1865.71 132.696C1865.71 132.374 1865.67 132.091 1865.71 131.769C1865.87 130.559 1865.25 130.236 1864.14 130.115C1858.85 129.47 1853.77 128.099 1849.02 125.881C1831.06 117.493 1820.2 103.742 1816.73 84.5061C1816.6 83.7802 1816.44 83.014 1816.32 82.2882C1814.71 78.2555 1814.83 74.2229 1816.23 70.1902C1817.14 64.7461 1818.3 59.3424 1820.69 54.3016C1829.7 35.711 1844.69 24.9035 1865.62 22Z" fill="#434242"></path> <path d="M1816.23 70.3112C1816.48 71.9646 1816.03 73.5777 1815.94 75.231C1815.82 77.6506 1816.36 80.0299 1816.32 82.4092C1788.32 82.4092 1760.32 82.4092 1732.36 82.4092C1730.25 82.4092 1730.21 82.4092 1729.92 84.4658C1726.83 105.758 1710.18 124.51 1687.06 129.511C1654.89 136.487 1625.77 115.921 1619.91 87.208C1619.58 85.5143 1619.29 83.7803 1619 82.0866C1619 78.2959 1619 74.5052 1619 70.7145C1619.87 64.2219 1621.48 57.931 1624.58 52.0836C1633.37 35.6707 1647.04 25.71 1665.79 22.4436C1666.62 22.2823 1667.48 22.1613 1668.31 22.0403C1668.93 22.0403 1669.55 22.0403 1670.17 22C1670.79 22 1671.41 22 1672.03 22C1673.92 22 1675.82 22 1677.72 22C1678.34 22 1678.96 22 1679.58 22C1680.04 22 1680.49 22 1680.95 22C1690.57 23.2501 1699.45 26.3553 1707.29 32.001C1719.81 40.9938 1727.4 52.9305 1729.88 67.9723C1729.92 68.2142 1729.96 68.4159 1730.01 68.6578C1730.09 69.787 1730.54 70.4725 1731.86 70.2709C1732.48 70.1902 1733.1 70.2709 1733.72 70.2709C1761.23 70.2709 1788.73 70.3112 1816.23 70.3112Z" fill="#00A0E3"></path> <path d="M2067.98 118.461C2043.98 118.461 2024.74 99.5482 2024.78 76.0782C2024.82 52.8501 2044.36 33.9369 2068.14 34.0176C2091.93 34.0982 2111.3 53.1324 2111.26 76.3605C2111.22 99.6289 2091.85 118.461 2067.98 118.461Z" fill="white"></path> <path d="M1828.71 76.2799C1828.66 53.0114 1847.99 34.058 1871.82 34.0176C1895.61 33.9773 1915.02 52.8501 1915.06 76.1589C1915.1 99.6289 1895.81 118.502 1871.82 118.461C1847.99 118.421 1828.75 99.6289 1828.71 76.2799Z" fill="white"></path> <path d="M1828.71 268.84C1828.75 245.45 1848.2 226.537 1872.11 226.658C1895.9 226.739 1915.14 245.732 1915.06 269.041C1914.97 292.35 1895.65 311.142 1871.78 311.102C1847.95 311.061 1828.66 292.108 1828.71 268.84Z" fill="white"></path> <path d="M1915.1 461.6C1915.06 484.909 1895.69 503.741 1871.86 503.701C1848.03 503.66 1828.71 484.747 1828.75 461.439C1828.79 438.009 1848.16 419.176 1872.15 419.217C1895.9 419.338 1915.14 438.291 1915.1 461.6Z" fill="white"></path> <path d="M2024.78 268.799C2024.82 245.53 2044.19 226.617 2068.02 226.658C2091.81 226.658 2111.22 245.651 2111.26 268.879C2111.3 292.188 2091.81 311.182 2067.85 311.142C2044.07 311.061 2024.78 292.107 2024.78 268.799Z" fill="white"></path> <path d="M1674.96 34.0986C1699.45 34.6229 1718.28 53.657 1717.86 77.248C1717.45 100.154 1697.63 119.349 1673.1 118.502C1649.73 117.696 1630.81 98.4195 1631.47 75.0704C1632.05 53.657 1649.93 34.139 1674.96 34.0986Z" fill="white"></path> <path d="M2096.68 268.96C2096.64 284.445 2083.75 296.987 2067.94 296.947C2052.16 296.906 2039.28 284.244 2039.32 268.839C2039.36 253.434 2052.37 240.772 2068.1 240.852C2083.96 240.973 2096.72 253.475 2096.68 268.96Z" fill="#434242"></path> <path d="M1674.67 48.374C1690.57 48.374 1703.33 60.7946 1703.33 76.3606C1703.33 91.846 1690.53 104.347 1674.67 104.347C1658.81 104.347 1646.01 91.8057 1646.01 76.3203C1646.01 60.7946 1658.77 48.374 1674.67 48.374Z" fill="#00A0E3"></path> <defs> <clipPath id="clip0"> <rect width="1508" height="494" fill="white" transform="translate(61 22)"></rect> </clipPath> </defs> </svg> 